<svg>
	<symbol id="phone" width="22" height="22" viewBox="0 0 22 22" fill="currentColor" xmlns="http://www.w3.org/2000/svg">
		<path d="M7.91992 1.75975L7.2084 1.99692V1.99692L7.91992 1.75975ZM9.58415 6.75246L8.87264 6.98963L9.58415 6.75246ZM9.02696 8.09763L9.36237 8.76845L9.02696 8.09763ZM6.5189 9.35166L6.18349 8.68084C5.82346 8.86086 5.66973 9.29298 5.83518 9.65993L6.5189 9.35166ZM12.6483 15.4811L12.3401 16.1648C12.707 16.3303 13.1391 16.1765 13.3192 15.8165L12.6483 15.4811ZM13.9024 12.973L13.2316 12.6376L13.9024 12.973ZM15.2475 12.4158L15.0104 13.1274H15.0104L15.2475 12.4158ZM20.2403 14.0801L20.4774 13.3686L20.2403 14.0801ZM3.22222 0.25C1.58071 0.25 0.25 1.58071 0.25 3.22222H1.75C1.75 2.40914 2.40914 1.75 3.22222 1.75V0.25ZM6.86582 0.25H3.22222V1.75H6.86582V0.25ZM8.63143 1.52258C8.37811 0.762606 7.6669 0.25 6.86582 0.25V1.75C7.02126 1.75 7.15925 1.84946 7.2084 1.99692L8.63143 1.52258ZM10.2957 6.51529L8.63143 1.52258L7.2084 1.99692L8.87264 6.98963L10.2957 6.51529ZM9.36237 8.76845C10.1908 8.35425 10.5886 7.39394 10.2957 6.51529L8.87264 6.98963C8.92947 7.16011 8.85229 7.34644 8.69155 7.42681L9.36237 8.76845ZM6.85431 10.0225L9.36237 8.76845L8.69155 7.42681L6.18349 8.68084L6.85431 10.0225ZM12.9566 14.7974C10.407 13.6479 8.35215 11.593 7.20262 9.0434L5.83518 9.65993C7.13507 12.543 9.45697 14.8649 12.3401 16.1648L12.9566 14.7974ZM13.2316 12.6376L11.9775 15.1457L13.3192 15.8165L14.5732 13.3084L13.2316 12.6376ZM15.4847 11.7043C14.6061 11.4115 13.6458 11.8092 13.2316 12.6376L14.5732 13.3084C14.6536 13.1477 14.8399 13.0705 15.0104 13.1274L15.4847 11.7043ZM20.4774 13.3686L15.4847 11.7043L15.0104 13.1274L20.0031 14.7916L20.4774 13.3686ZM21.75 15.1342C21.75 14.3331 21.2374 13.6219 20.4774 13.3686L20.0031 14.7916C20.1505 14.8407 20.25 14.9787 20.25 15.1342H21.75ZM21.75 18.7778V15.1342H20.25V18.7778H21.75ZM18.7778 21.75C20.4193 21.75 21.75 20.4193 21.75 18.7778H20.25C20.25 19.5909 19.5909 20.25 18.7778 20.25V21.75ZM17.6667 21.75H18.7778V20.25H17.6667V21.75ZM0.25 4.33333C0.25 13.9523 8.04771 21.75 17.6667 21.75V20.25C8.87613 20.25 1.75 13.1239 1.75 4.33333H0.25ZM0.25 3.22222V4.33333H1.75V3.22222H0.25Z" fill="currentColor"/>
	</symbol>
	<symbol id="map" width="20" height="22" viewBox="0 0 20 22" fill="none" xmlns="http://www.w3.org/2000/svg">
		<path d="M16.364 15.7754C15.3103 16.7887 13.1068 18.9078 11.5905 20.366C10.7118 21.211 9.28864 21.2115 8.40996 20.3665C6.92013 18.9337 4.75929 16.8556 3.63604 15.7754C0.12132 12.3953 0.12132 6.91514 3.63604 3.53506C7.15076 0.15498 12.8492 0.15498 16.364 3.53506C19.8787 6.91514 19.8787 12.3953 16.364 15.7754Z" stroke="currentColor" stroke-width="1.5" stroke-linecap="round" stroke-linejoin="round"/>
		<path d="M13.375 9.65524C13.375 11.4478 11.864 12.901 10 12.901C8.13604 12.901 6.625 11.4478 6.625 9.65524C6.625 7.86268 8.13604 6.40953 10 6.40953C11.864 6.40953 13.375 7.86268 13.375 9.65524Z" stroke="currentColor" stroke-width="1.5" stroke-linecap="round" stroke-linejoin="round"/>
	</symbol>
	<symbol id="slider-arrow" width="28" height="50" viewBox="0 0 28 50" fill="currentColor" xmlns="http://www.w3.org/2000/svg">
		<path opacity="0.5" d="M1.33914 49.3674L0.971739 49.7065L0.293459 48.9717L0.66086 48.6326L1.33914 49.3674ZM27 25L27.3391 24.6326L27.7372 25L27.3391 25.3674L27 25ZM0.66086 1.3674L0.293459 1.02826L0.971739 0.293458L1.33914 0.632598L0.66086 1.3674ZM0.66086 48.6326L26.6609 24.6326L27.3391 25.3674L1.33914 49.3674L0.66086 48.6326ZM26.6609 25.3674L0.66086 1.3674L1.33914 0.632598L27.3391 24.6326L26.6609 25.3674Z" fill="currentColor"/>
	</symbol>
	<symbol id="slider-arrow-2" width="20" height="16" viewBox="0 0 20 16" fill="none" xmlns="http://www.w3.org/2000/svg">
		<path d="M12.9698 15.6941C12.5865 16.0917 11.9534 16.1032 11.5559 15.7198C11.1583 15.3365 11.1468 14.7034 11.5302 14.3059L12.9698 15.6941ZM19 8L19.7198 7.30587C20.0934 7.69324 20.0934 8.30676 19.7198 8.69414L19 8ZM11.5302 1.69414C11.1468 1.29658 11.1583 0.663516 11.5559 0.280156C11.9534 -0.103205 12.5865 -0.0916946 12.9698 0.305865L11.5302 1.69414ZM1 9C0.447716 9 0 8.55229 0 8C0 7.44772 0.447716 7 1 7V9ZM11.5302 14.3059L18.2802 7.30587L19.7198 8.69414L12.9698 15.6941L11.5302 14.3059ZM18.2802 8.69414L11.5302 1.69414L12.9698 0.305865L19.7198 7.30587L18.2802 8.69414ZM19 9L1 9V7L19 7L19 9Z" fill="currentColor"/>
	</symbol>
	<symbol id="small-arrow" width="12" height="7" viewBox="0 0 12 7" fill="none" xmlns="http://www.w3.org/2000/svg">
		<path d="M1.71387 5.92859L5.99958 1.64287L10.2853 5.92859" stroke="currentColor" stroke-width="2" stroke-linecap="round"/>
	</symbol>
	<symbol id="clock" width="22" height="22" viewBox="0 0 22 22" fill="none" xmlns="http://www.w3.org/2000/svg">
		<path d="M11 6.55556V11L14.3333 14.3333M21 11C21 16.5228 16.5228 21 11 21C5.47715 21 1 16.5228 1 11C1 5.47715 5.47715 1 11 1C16.5228 1 21 5.47715 21 11Z" stroke="currentColor" stroke-width="1.5" stroke-linecap="round" stroke-linejoin="round"/>
	</symbol>
	<symbol id="email" width="22" height="18" viewBox="0 0 22 18" fill="none" xmlns="http://www.w3.org/2000/svg">
		<path d="M1 4.42857L9.76733 10.4405C10.5138 10.9523 11.4862 10.9523 12.2327 10.4405L21 4.42857M3.22222 17H18.7778C20.0051 17 21 15.9767 21 14.7143V3.28571C21 2.02335 20.0051 1 18.7778 1H3.22222C1.99492 1 1 2.02335 1 3.28571V14.7143C1 15.9767 1.99492 17 3.22222 17Z" stroke="currentColor" stroke-width="1.5" stroke-linecap="round" stroke-linejoin="round"/>
	</symbol>
	<symbol id="close" width="16" height="16" viewBox="0 0 16 16" fill="none" xmlns="http://www.w3.org/2000/svg">
		<path opacity="0.5" d="M1 1L8 8M8 8L15 15M8 8L1 15M8 8L15 1" stroke="#010B05"/>
	</symbol>
	<symbol id="basket" height="20" width="20" enable-background="new 0 0 490.875 490.875" version="1.1" viewBox="0 0 490.88 490.88" xml:space="preserve" xmlns="http://www.w3.org/2000/svg">
		<path d="m451.61 178.11h-31.244c3.668 20.593-5.14 42.301-23.979 53.957-8.325 5.146-17.877 7.869-27.635 7.869-18.359 0-35.082-9.312-44.729-24.912-6.822-11.033-9.033-24.246-6.75-36.915h-143.67c2.273 12.669 0.063 25.881-6.758 36.922-9.639 15.592-26.362 24.904-44.721 24.904-9.765 0-19.316-2.723-27.646-7.869-18.835-11.656-27.646-33.364-23.974-53.957h-31.242c-21.688 0-39.263 17.575-39.263 39.263 0 21.676 17.575 39.25 39.263 39.25h4.331l28.793 175.12c3.019 18.319 18.847 31.771 37.423 31.771h271.25c18.575 0 34.403-13.452 37.42-31.771l28.784-175.11h4.343c21.686 0 39.264-17.576 39.264-39.251 0-21.688-17.58-39.263-39.264-39.263zm-284.19 239.97c-1.186 0.174-2.36 0.266-3.523 0.266-11.459 0-21.503-8.391-23.269-20.069l-16.306-108.68c-1.931-12.87 6.931-24.861 19.801-26.792 12.886-1.875 24.853 6.931 26.792 19.793l16.31 108.69c1.931 12.866-6.935 24.86-19.805 26.792zm101.58-23.301c0 13.018-10.541 23.564-23.552 23.564-13.016 0-23.552-10.549-23.552-23.564v-108.69c0-13.004 10.537-23.553 23.552-23.553 13.011 0 23.552 10.549 23.552 23.553v108.69zm97.564-105.19-16.317 108.68c-1.754 11.68-11.797 20.069-23.256 20.069-1.168 0-2.338-0.091-3.527-0.266-12.869-1.931-21.732-13.926-19.801-26.792l16.307-108.69c1.938-12.87 13.857-21.732 26.791-19.794 12.867 1.931 21.732 13.924 19.803 26.793z" fill="currentColor"/>
		<path d="m102.75 218.71c6.037 3.74 12.748 5.521 19.379 5.521 12.341 0 24.407-6.199 31.362-17.464 6.415-10.375 6.967-22.646 2.739-33.151l69.947-113.05c6.321-10.222 3.16-23.611-7.062-29.944-3.566-2.203-7.522-3.263-11.423-3.263-7.286 0-14.402 3.661-18.528 10.324l-69.924 113.05c-11.282 0.906-22.02 6.86-28.435 17.232-10.717 17.315-5.354 40.035 11.945 50.745z" fill="currentColor"/>
		<path d="m334.65 173.62c-4.228 10.505-3.688 22.776 2.729 33.151 6.967 11.266 19.021 17.464 31.373 17.464 6.629 0 13.332-1.781 19.379-5.521 17.299-10.71 22.65-33.431 11.937-50.745-6.398-10.372-17.146-16.326-28.418-17.232l-69.952-113.05c-4.114-6.664-11.231-10.324-18.519-10.324-3.899 0-7.855 1.06-11.427 3.263-10.218 6.333-13.354 19.722-7.058 29.944l69.956 113.05z" fill="currentColor"/>
	</symbol>
	<symbol id="ctabutton" width="35" height="33" viewBox="0 0 35 33" fill="none" xmlns="http://www.w3.org/2000/svg">
		<path d="M32.5503 10.9201H24.2439V2.49351C24.2439 1.13042 23.1349 0.0219727 21.7724 0.0219727H2.47153C1.10906 0.0219727 0 1.13035 0 2.49351V14.9003C0 16.2633 1.10906 17.3725 2.47153 17.3725H4.94033V20.6478C4.94033 22.2005 6.8302 22.9682 7.9288 21.8852L11.0976 18.7622V25.5854C11.0976 26.9362 12.1964 28.035 13.5473 28.035H23.9749L28.4788 32.4741C29.5737 33.5533 31.4475 32.7864 31.4475 31.2442V28.035H32.5504C33.9013 28.035 35.0001 26.9362 35.0001 25.5853V13.3691C35 12.019 33.9012 10.9201 32.5503 10.9201ZM11.0975 13.3691V15.885L6.98906 19.934V16.348C6.98906 15.7818 6.53085 15.3236 5.9647 15.3236H2.47153C2.23863 15.3236 2.0488 15.1338 2.0488 14.9002V2.49351C2.0488 2.26061 2.23863 2.07077 2.47153 2.07077H21.7724C22.0053 2.07077 22.1951 2.26061 22.1951 2.49351V10.9202H13.5472C12.1964 10.9201 11.0975 12.019 11.0975 13.3691ZM32.9512 25.5853C32.9512 25.8066 32.7716 25.9862 32.5503 25.9862H30.423C29.8575 25.9862 29.3986 26.4444 29.3986 27.0105V30.5044L25.1133 26.2804C24.9221 26.092 24.6639 25.9861 24.3941 25.9861H13.5472C13.3259 25.9861 13.1463 25.8065 13.1463 25.5852C13.1463 25.1321 13.1463 13.8689 13.1463 13.369C13.1463 13.1484 13.3259 12.9688 13.5472 12.9688H32.5503C32.7716 12.9688 32.9512 13.1484 32.9512 13.369V25.5853Z" fill="currentColor"/>
		<path d="M19.2927 6.30684C19.2927 5.74109 18.8341 5.28247 18.2683 5.28247H5.97566C5.40992 5.28247 4.95129 5.74109 4.95129 6.30684C4.95129 6.87258 5.40992 7.3312 5.97566 7.3312H18.2683C18.8341 7.33127 19.2927 6.87258 19.2927 6.30684Z" fill="currentColor"/>
		<path d="M8.58214 10.0627H5.97566C5.40992 10.0627 4.95129 10.5214 4.95129 11.0871C4.95129 11.6529 5.40992 12.1115 5.97566 12.1115H8.58214C9.14788 12.1115 9.60651 11.6529 9.60651 11.0871C9.60651 10.5214 9.14788 10.0627 8.58214 10.0627Z" fill="currentColor"/>
		<path d="M17.7902 18.4531C17.2245 18.4531 16.7659 18.9117 16.7659 19.4775C16.7659 20.0432 17.2245 20.5019 17.7902 20.5019C18.356 20.5019 18.8146 20.0432 18.8146 19.4775C18.8146 18.9117 18.356 18.4531 17.7902 18.4531Z" fill="currentColor"/>
		<path d="M23.0488 18.4531C22.483 18.4531 22.0244 18.9117 22.0244 19.4775C22.0244 20.0432 22.483 20.5019 23.0488 20.5019C23.6145 20.5019 24.0731 20.0432 24.0731 19.4775C24.0731 18.9117 23.6145 18.4531 23.0488 18.4531Z" fill="currentColor"/>
		<path d="M28.3072 18.4531C27.7415 18.4531 27.2828 18.9117 27.2828 19.4775C27.2828 20.0432 27.7415 20.5019 28.3072 20.5019C28.8729 20.5019 29.3316 20.0432 29.3316 19.4775C29.3316 18.9117 28.8729 18.4531 28.3072 18.4531Z" fill="currentColor"/>
	</symbol>

</svg>