<svg>
	<symbol id="telegram" width="40" height="40" viewBox="0 0 40 40" fill="none" xmlns="http://www.w3.org/2000/svg">
		<rect width="40" height="40" rx="4" fill="#2F89CE"/>
		<path d="M9.3507 20.3741L13.9488 22.0886L15.7413 27.8557C15.8192 28.2454 16.2868 28.3233 16.5985 28.0895L19.1703 25.9853C19.4041 25.7515 19.7938 25.7515 20.1055 25.9853L24.7036 29.3364C25.0154 29.5702 25.483 29.4144 25.5609 29.0247L28.99 12.6587C29.0679 12.269 28.6782 11.8793 28.2886 12.0352L9.3507 19.3609C8.8831 19.5168 8.8831 20.2182 9.3507 20.3741ZM15.5075 21.2313L24.5477 15.6981C24.7036 15.6201 24.8595 15.8539 24.7036 15.9319L17.2999 22.868C17.0661 23.1018 16.8323 23.4135 16.8323 23.8032L16.5985 25.6736C16.5985 25.9074 16.2089 25.9853 16.1309 25.6736L15.1957 22.2445C14.9619 21.8548 15.1178 21.3872 15.5075 21.2313Z" fill="white"/>
	</symbol>
	<symbol id="telegram-rounded" width="26" height="26" viewBox="0 0 26 26" fill="none" xmlns="http://www.w3.org/2000/svg">
		<circle cx="13" cy="13" r="13" fill="#2F89CE"/>
		<path d="M6.07805 13.243L9.06682 14.3574L10.2319 18.106C10.2826 18.3593 10.5865 18.41 10.7891 18.258L12.4608 16.8903C12.6128 16.7383 12.8661 16.7383 13.0687 16.8903L16.0575 19.0685C16.2601 19.2205 16.564 19.1191 16.6147 18.8659L18.8436 8.22793C18.8942 7.97465 18.641 7.72136 18.3877 7.82268L6.07805 12.5844C5.77411 12.6857 5.77411 13.1416 6.07805 13.243ZM10.08 13.8002L15.9561 10.2035C16.0574 10.1529 16.1588 10.3049 16.0575 10.3555L11.2451 14.864C11.0931 15.0159 10.9411 15.2186 10.9411 15.4719L10.7891 16.6876C10.7891 16.8396 10.5359 16.8902 10.4852 16.6876L9.87731 14.4587C9.72534 14.2054 9.82667 13.9015 10.08 13.8002Z" fill="white"/>
	</symbol>
	<symbol id="telegram-white" width="25" height="23" viewBox="0 0 25 23" fill="none" xmlns="http://www.w3.org/2000/svg">
		<path d="M24.0089 0.654053L0 10.3662V11.7701L6.87644 13.8929L9.05118 20.8699L10.7872 20.8696L13.5862 18.0058L19.4947 22.3457L20.6447 21.9082L25 1.4859L24.0089 0.654053ZM19.4483 20.4939L11.6667 14.7783L10.7994 15.959L12.3937 17.13L10.1291 19.4047L8.35217 13.7041L18.6445 7.55876L17.8935 6.30089L7.44971 12.5366L2.39719 10.9768L23.2795 2.52949L19.4483 20.4939Z" fill="white"/>
	</symbol>
	<symbol id="whatsapp" width="40" height="40" viewBox="0 0 40 40" fill="none" xmlns="http://www.w3.org/2000/svg">
		<rect width="40" height="40" rx="4" fill="#48C95F"/>
		<path d="M27.9268 12.0625C25.9512 10.0937 23.3171 9 20.5366 9C14.7561 9 10.0732 13.6667 10.0732 19.4271C10.0732 21.25 10.5854 23.0729 11.4634 24.6042L10 30L15.561 28.5417C17.0976 29.3438 18.7805 29.7812 20.5366 29.7812C26.3171 29.7812 31 25.1146 31 19.3542C30.9268 16.6563 29.9024 14.0312 27.9268 12.0625ZM25.5854 23.1458C25.3659 23.7292 24.3415 24.3125 23.8293 24.3854C23.3902 24.4583 22.8049 24.4583 22.2195 24.3125C21.8537 24.1667 21.3415 24.0208 20.7561 23.7292C18.122 22.6354 16.439 20.0104 16.2927 19.7917C16.1463 19.6458 15.1951 18.4062 15.1951 17.0937C15.1951 15.7812 15.8537 15.1979 16.0732 14.9062C16.2927 14.6146 16.5854 14.6146 16.8049 14.6146C16.9512 14.6146 17.1707 14.6146 17.3171 14.6146C17.4634 14.6146 17.6829 14.5417 17.9024 15.0521C18.122 15.5625 18.6341 16.875 18.7073 16.9479C18.7805 17.0938 18.7805 17.2396 18.7073 17.3854C18.6341 17.5312 18.561 17.6771 18.4146 17.8229C18.2683 17.9687 18.1219 18.1875 18.0488 18.2604C17.9024 18.4062 17.7561 18.5521 17.9024 18.7708C18.0488 19.0625 18.561 19.8646 19.3659 20.5937C20.3902 21.4687 21.1951 21.7604 21.4878 21.9063C21.7805 22.0521 21.9268 21.9792 22.0732 21.8333C22.2195 21.6875 22.7317 21.1042 22.878 20.8125C23.0244 20.5208 23.2439 20.5938 23.4634 20.6667C23.6829 20.7396 25 21.3958 25.2195 21.5417C25.5122 21.6875 25.6585 21.7604 25.7317 21.8333C25.8049 22.0521 25.8049 22.5625 25.5854 23.1458Z" fill="white"/>
	</symbol>
	<symbol id="whatsapp-rounded" width="26" height="26" viewBox="0 0 26 26" fill="none" xmlns="http://www.w3.org/2000/svg">
		<circle cx="13" cy="13" r="13" fill="#48C95F"/>
		<path d="M18.1524 7.84121C16.8683 6.56152 15.1561 5.85059 13.3488 5.85059C9.59146 5.85059 6.54756 8.88392 6.54756 12.6282C6.54756 13.8131 6.88049 14.998 7.45122 15.9933L6.5 19.5006L10.1146 18.5527C11.1134 19.074 12.2073 19.3584 13.3488 19.3584C17.1061 19.3584 20.15 16.3251 20.15 12.5808C20.1024 10.8271 19.4366 9.1209 18.1524 7.84121ZM16.6305 15.0454C16.4878 15.4245 15.8219 15.8037 15.489 15.8511C15.2037 15.8985 14.8232 15.8985 14.4427 15.8037C14.2049 15.7089 13.872 15.6141 13.4915 15.4245C11.7793 14.7136 10.6854 13.0074 10.5902 12.8652C10.4951 12.7704 9.87683 11.9646 9.87683 11.1115C9.87683 10.2584 10.3049 9.87923 10.4476 9.68965C10.5902 9.50006 10.7805 9.50006 10.9232 9.50006C11.0183 9.50006 11.161 9.50006 11.2561 9.50006C11.3512 9.50006 11.4939 9.45267 11.6366 9.78444C11.7793 10.1162 12.1122 10.9693 12.1598 11.0167C12.2073 11.1115 12.2073 11.2063 12.1598 11.3011C12.1122 11.3959 12.0646 11.4907 11.9695 11.5855C11.8744 11.6803 11.7793 11.8225 11.7317 11.8699C11.6366 11.9646 11.5415 12.0594 11.6366 12.2016C11.7317 12.3912 12.0646 12.9126 12.5878 13.3865C13.2537 13.9553 13.7768 14.1449 13.9671 14.2396C14.1573 14.3344 14.2524 14.287 14.3476 14.1923C14.4427 14.0975 14.7756 13.7183 14.8707 13.5287C14.9659 13.3391 15.1085 13.3865 15.2512 13.4339C15.3939 13.4813 16.25 13.9079 16.3927 14.0027C16.5829 14.0975 16.678 14.1449 16.7256 14.1923C16.7732 14.3344 16.7732 14.6662 16.6305 15.0454Z" fill="white"/>
	</symbol>
	<symbol id="whatsapp-white" width="25" height="25" viewBox="0 0 25 25" fill="none" xmlns="http://www.w3.org/2000/svg">
		<g clip-path="url(#clip0)">
		<path d="M21.4491 3.55091C19.1591 1.26095 16.1152 0 12.8765 0C12.8763 0 12.8756 0 12.8754 0C11.2736 0.000190735 9.7126 0.310326 8.23612 0.922012C6.75946 1.5337 5.43652 2.41814 4.30374 3.55091C2.01397 5.84068 0.753024 8.88519 0.753024 12.1235C0.753024 14.0547 1.21899 15.9739 2.1019 17.6838L0.0640898 23.5054C-0.0795336 23.9161 0.0221281 24.3624 0.329974 24.67C0.545314 24.8856 0.828746 25 1.12019 25C1.24512 25 1.37139 24.979 1.4946 24.9359L7.31621 22.8983C9.02615 23.7812 10.9453 24.2472 12.8765 24.2472C16.1148 24.2472 19.1591 22.986 21.4491 20.6963C23.7389 18.4065 25 15.362 25 12.1237C25 8.88519 23.7391 5.84068 21.4491 3.55091ZM20.4123 19.6594C18.3994 21.6724 15.723 22.7808 12.8765 22.7808C11.1351 22.7808 9.40514 22.3501 7.87354 21.5349C7.59583 21.3873 7.26757 21.3619 6.97289 21.4651L1.68381 23.3162L3.53508 18.0271C3.63827 17.732 3.61271 17.4038 3.46508 17.1263C2.65007 15.5951 2.2192 13.8651 2.2192 12.1235C2.2192 9.27696 3.32775 6.60057 5.34058 4.58775C7.35321 2.57511 10.0292 1.46656 12.8756 1.46618H12.8765C15.7232 1.46618 18.3994 2.57473 20.4123 4.58775C22.4253 6.60057 23.5338 9.27677 23.5338 12.1235C23.5338 14.9702 22.4253 17.6466 20.4123 19.6594Z" fill="white"/>
		<path d="M17.382 13.2065C16.8243 12.6488 15.9168 12.6488 15.3591 13.2065L14.7491 13.8164C13.2345 12.9911 12.0089 11.7655 11.1834 10.2508L11.7933 9.64088C12.3512 9.08317 12.3512 8.17565 11.7933 7.61794L10.1496 5.97419C9.59186 5.41648 8.68435 5.41648 8.12664 5.97419L6.81171 7.28912C6.0585 8.04233 6.02093 9.33723 6.70585 10.9354C7.30057 12.323 8.3889 13.8481 9.77039 15.2296C11.1519 16.6111 12.677 17.6994 14.0646 18.2941C14.8239 18.6195 15.5146 18.7818 16.1114 18.7818C16.7707 18.7818 17.3155 18.5837 17.7109 18.1883L19.0258 16.8732V16.8734C19.2961 16.6031 19.4448 16.2439 19.4448 15.8619C19.4448 15.4797 19.2961 15.1205 19.0258 14.8504L17.382 13.2065ZM16.674 17.1514C16.4591 17.3664 15.798 17.4417 14.6423 16.9466C13.422 16.4236 12.06 15.4455 10.8072 14.1928C9.55448 12.94 8.57658 11.5782 8.05359 10.3578C7.55825 9.20219 7.63359 8.54091 7.84855 8.32595L9.1383 7.0362L10.7313 8.62941L9.9678 9.39311C9.62257 9.73834 9.53922 10.2619 9.76066 10.696C10.7645 12.6644 12.3356 14.2355 14.304 15.2393C14.7383 15.4608 15.2618 15.3776 15.6071 15.0322L16.3706 14.2687L17.9638 15.8619L16.674 17.1514Z" fill="white"/>
		</g>
		<defs>
		<clipPath id="clip0">
		<rect width="25" height="25" fill="white"/>
		</clipPath>
		</defs>
	</symbol>
	<symbol id="viber" width="40" height="40" viewBox="0 0 40 40" fill="none" xmlns="http://www.w3.org/2000/svg">
		<rect width="40" height="40" rx="4" fill="#7C509A"/>
		<g transform="translate(7, 7)">
		<path d="M24.1198 14.4717C24.8656 8.19359 23.7614 4.23005 21.7698 2.43734L21.7708 2.4363C18.5562 -0.625157 7.69996 -1.07828 3.85413 2.5738C2.12704 4.36026 1.51871 6.98213 1.45204 10.228C1.38538 13.4748 1.30621 19.5571 6.97392 21.2071H6.97913L6.97392 23.7269C6.97392 23.7269 6.93538 24.7478 7.58746 24.953C8.33329 25.1946 8.67079 24.7207 10.9906 21.9498C14.8698 22.2863 17.8489 21.5155 18.1875 21.403C18.9708 21.1405 23.4031 20.554 24.1198 14.4717ZM11.3729 20.1769C11.3729 20.1769 8.91767 23.2384 8.15413 24.0332C7.90413 24.2915 7.63017 24.2675 7.63434 23.7551C7.63434 23.4186 7.65309 19.5717 7.65309 19.5717C2.84788 18.1946 3.13121 13.0155 3.18329 10.3061C3.23538 7.59568 3.73121 5.37588 5.19371 3.88109C8.56767 0.717551 18.0854 1.42484 20.5104 3.70401C23.475 6.33213 22.4198 13.7571 22.426 14.0103C21.8166 19.0873 18.225 19.4092 17.5645 19.629C17.2823 19.7228 14.6625 20.3967 11.3729 20.1769Z" fill="white"/>
		<path d="M12.7312 4.47583C12.3302 4.47583 12.3302 5.10083 12.7312 5.10604C15.8427 5.13 18.4052 7.29875 18.4333 11.2769C18.4333 11.6967 19.0479 11.6915 19.0427 11.2717H19.0416C19.0083 6.98521 16.2104 4.49979 12.7312 4.47583Z" fill="white"/>
		<path d="M16.8239 10.6177C16.8146 11.0323 17.4281 11.0521 17.4333 10.6323C17.4844 8.26879 16.0271 6.32191 13.2885 6.1167C12.8875 6.08754 12.8458 6.71775 13.2458 6.74691C15.6208 6.92712 16.8719 8.54795 16.8239 10.6177Z" fill="white"/>
		<path d="M16.1678 13.3062C15.6532 13.0083 15.1292 13.1937 14.9125 13.4864L14.4594 14.0729C14.2292 14.3708 13.799 14.3312 13.799 14.3312C10.6594 13.501 9.81985 10.2156 9.81985 10.2156C9.81985 10.2156 9.78131 9.77078 10.0688 9.53224L10.6355 9.06349C10.9188 8.83849 11.098 8.29682 10.8094 7.76453C10.0386 6.37182 9.52089 5.89161 9.25735 5.52286C8.98027 5.17599 8.5636 5.09786 8.13027 5.33224H8.12089C7.21985 5.85932 6.23339 6.84578 6.54902 7.8614C7.08756 8.93224 8.07714 12.3458 11.2313 14.9249C12.7136 16.1447 15.0594 17.3947 16.0553 17.6833L16.0646 17.6979C17.0459 18.0249 18 16.9999 18.5094 16.0718V16.0645C18.7355 15.6156 18.6605 15.1906 18.3303 14.9124C17.7448 14.3416 16.8615 13.7114 16.1678 13.3062Z" fill="white"/>
		<path d="M13.7178 8.44167C14.7188 8.5 15.2042 9.02292 15.2563 10.0969C15.2751 10.5167 15.8845 10.4875 15.8657 10.0677C15.799 8.66563 15.0678 7.88437 13.7511 7.81146C13.3501 7.7875 13.3126 8.41771 13.7178 8.44167Z" fill="white"/>
		</g>
	</symbol>
	<symbol id="viber-rounded" width="26" height="26" viewBox="0 0 26 26" fill="none" xmlns="http://www.w3.org/2000/svg">
		<circle cx="13" cy="13" r="13" fill="#7C509A"/>
		<path d="M17.0651 6.85484C14.5876 6.38172 12.0148 6.38172 9.5373 6.85484C8.44149 7.09141 7.05982 8.41616 6.8216 9.45703C6.3928 11.4915 6.3928 13.5732 6.8216 15.6077C7.10746 16.6485 8.48913 17.9733 9.5373 18.2098C9.58495 18.2098 9.63259 18.2572 9.63259 18.3045V21.2852C9.63259 21.4271 9.82317 21.5217 9.91846 21.3798L11.3478 19.9131C11.3478 19.9131 12.4912 18.7303 12.6818 18.541C12.6818 18.541 12.7295 18.4937 12.7771 18.4937C14.2064 18.541 15.6834 18.3991 17.1127 18.1625C18.2085 17.926 19.5902 16.6012 19.8284 15.5603C20.2572 13.5259 20.2572 11.4442 19.8284 9.40972C19.5425 8.41616 18.1609 7.09141 17.0651 6.85484ZM17.1127 15.7496C16.8745 16.2227 16.5886 16.6012 16.1122 16.8378C15.9692 16.8851 15.8263 16.9324 15.6834 16.9797C15.4928 16.9324 15.3499 16.8851 15.2069 16.8378C13.6823 16.2227 12.253 15.3711 11.1096 14.141C10.4902 13.4313 9.9661 12.627 9.5373 11.7753C9.34673 11.3495 9.15615 10.971 9.01322 10.5452C8.87029 10.1667 9.10851 9.78822 9.34673 9.50435C9.58495 9.22047 9.87081 9.03122 10.2043 8.88928C10.4425 8.74734 10.6808 8.84197 10.8713 9.03122C11.2525 9.50435 11.6336 9.97747 11.9195 10.4979C12.1101 10.8291 12.0624 11.2076 11.7289 11.4442C11.6336 11.4915 11.586 11.5388 11.4907 11.6334C11.4431 11.6807 11.3478 11.728 11.3001 11.8227C11.2048 11.9646 11.2048 12.1065 11.2525 12.2485C11.6336 13.3367 12.3483 14.1883 13.4441 14.6614C13.6347 14.756 13.7776 14.8033 14.0158 14.8033C14.3493 14.756 14.4923 14.3775 14.7305 14.1883C14.9687 13.999 15.2546 13.999 15.5404 14.141C15.7787 14.2829 16.0169 14.4722 16.3027 14.6614C16.541 14.8507 16.7792 14.9926 17.0174 15.1818C17.1603 15.2765 17.208 15.513 17.1127 15.7496ZM15.1116 12.2012C15.0164 12.2012 15.064 12.2012 15.1116 12.2012C14.9211 12.2012 14.8734 12.1065 14.8258 11.9646C14.8258 11.87 14.8258 11.728 14.7781 11.6334C14.7305 11.4442 14.6352 11.2549 14.4446 11.113C14.3493 11.0657 14.2541 11.0183 14.1588 10.971C14.0158 10.9237 13.9205 10.9237 13.7776 10.9237C13.6347 10.8764 13.587 10.7818 13.587 10.6398C13.587 10.5452 13.73 10.4506 13.8253 10.4506C14.5876 10.4979 15.1593 10.9237 15.2546 11.8227C15.2546 11.87 15.2546 11.9646 15.2546 12.0119C15.2546 12.1065 15.2069 12.2012 15.1116 12.2012ZM14.6352 10.1194C14.397 10.0248 14.1588 9.93016 13.8729 9.88285C13.7776 9.88285 13.6347 9.83553 13.5394 9.83553C13.3965 9.83553 13.3012 9.74091 13.3488 9.59897C13.3488 9.45703 13.4441 9.36241 13.587 9.40972C14.0635 9.45703 14.4923 9.55166 14.9211 9.74091C15.7787 10.1667 16.2551 10.8764 16.398 11.8227C16.398 11.87 16.398 11.9173 16.398 11.9646C16.398 12.0592 16.398 12.1538 16.398 12.2958C16.398 12.3431 16.398 12.3904 16.398 12.4377C16.3504 12.627 16.0169 12.6743 15.9692 12.4377C15.9692 12.3904 15.9216 12.2958 15.9216 12.2485C15.9216 11.8227 15.8263 11.3968 15.6357 11.0183C15.3499 10.5925 15.0164 10.3087 14.6352 10.1194ZM17.208 12.9582C17.0651 12.9582 16.9698 12.8162 16.9698 12.6743C16.9698 12.3904 16.9221 12.1065 16.8745 11.8227C16.6839 10.3087 15.4452 9.07853 13.9682 8.84197C13.73 8.79466 13.4918 8.79466 13.3012 8.74734C13.1582 8.74734 12.9677 8.74734 12.92 8.55809C12.8724 8.41616 13.0153 8.27422 13.1582 8.27422C13.2059 8.27422 13.2535 8.27422 13.2535 8.27422C15.2069 8.32153 13.3488 8.27422 13.2535 8.27422C15.2546 8.32153 16.9221 9.64628 17.2556 11.6334C17.3033 11.9646 17.3509 12.2958 17.3509 12.6743C17.4462 12.8162 17.3509 12.9582 17.208 12.9582Z" fill="white"/>
	</symbol>
	<symbol id="viber-white" width="25" height="25" viewBox="0 0 25 25" fill="none" xmlns="http://www.w3.org/2000/svg">
		<g clip-path="url(#clip0)">
		<path d="M24.1198 14.4717C24.8656 8.19359 23.7614 4.23005 21.7698 2.43734L21.7708 2.4363C18.5562 -0.625157 7.69996 -1.07828 3.85413 2.5738C2.12704 4.36026 1.51871 6.98213 1.45204 10.228C1.38538 13.4748 1.30621 19.5571 6.97392 21.2071H6.97913L6.97392 23.7269C6.97392 23.7269 6.93538 24.7478 7.58746 24.953C8.33329 25.1946 8.67079 24.7207 10.9906 21.9498C14.8698 22.2863 17.8489 21.5155 18.1875 21.403C18.9708 21.1405 23.4031 20.554 24.1198 14.4717ZM11.3729 20.1769C11.3729 20.1769 8.91767 23.2384 8.15413 24.0332C7.90413 24.2915 7.63017 24.2675 7.63434 23.7551C7.63434 23.4186 7.65309 19.5717 7.65309 19.5717C2.84788 18.1946 3.13121 13.0155 3.18329 10.3061C3.23538 7.59568 3.73121 5.37588 5.19371 3.88109C8.56767 0.717551 18.0854 1.42484 20.5104 3.70401C23.475 6.33213 22.4198 13.7571 22.426 14.0103C21.8166 19.0873 18.225 19.4092 17.5645 19.629C17.2823 19.7228 14.6625 20.3967 11.3729 20.1769Z" fill="white"/>
		<path d="M12.7312 4.47583C12.3302 4.47583 12.3302 5.10083 12.7312 5.10604C15.8427 5.13 18.4052 7.29875 18.4333 11.2769C18.4333 11.6967 19.0479 11.6915 19.0427 11.2717H19.0416C19.0083 6.98521 16.2104 4.49979 12.7312 4.47583Z" fill="white"/>
		<path d="M16.8239 10.6177C16.8146 11.0323 17.4281 11.0521 17.4333 10.6323C17.4844 8.26879 16.0271 6.32191 13.2885 6.1167C12.8875 6.08754 12.8458 6.71775 13.2458 6.74691C15.6208 6.92712 16.8719 8.54795 16.8239 10.6177Z" fill="white"/>
		<path d="M16.1678 13.3062C15.6532 13.0083 15.1292 13.1937 14.9125 13.4864L14.4594 14.0729C14.2292 14.3708 13.799 14.3312 13.799 14.3312C10.6594 13.501 9.81985 10.2156 9.81985 10.2156C9.81985 10.2156 9.78131 9.77078 10.0688 9.53224L10.6355 9.06349C10.9188 8.83849 11.098 8.29682 10.8094 7.76453C10.0386 6.37182 9.52089 5.89161 9.25735 5.52286C8.98027 5.17599 8.5636 5.09786 8.13027 5.33224H8.12089C7.21985 5.85932 6.23339 6.84578 6.54902 7.8614C7.08756 8.93224 8.07714 12.3458 11.2313 14.9249C12.7136 16.1447 15.0594 17.3947 16.0553 17.6833L16.0646 17.6979C17.0459 18.0249 18 16.9999 18.5094 16.0718V16.0645C18.7355 15.6156 18.6605 15.1906 18.3303 14.9124C17.7448 14.3416 16.8615 13.7114 16.1678 13.3062Z" fill="white"/>
		<path d="M13.7178 8.44167C14.7188 8.5 15.2042 9.02292 15.2563 10.0969C15.2751 10.5167 15.8845 10.4875 15.8657 10.0677C15.799 8.66563 15.0678 7.88437 13.7511 7.81146C13.3501 7.7875 13.3126 8.41771 13.7178 8.44167Z" fill="white"/>
		</g>
		<defs>
		<clipPath id="clip0">
		<rect width="25" height="25" fill="white"/>
		</clipPath>
		</defs>
	</symbol>
</svg>